<svg width="177" height="26" viewBox="0 0 177 26" fill="none" xmlns="http://www.w3.org/2000/svg">
<path d="M14.47 3.5199C14.3255 3.23085 14.0404 3.03555 13.7162 3.0043C13.392 2.97305 13.0756 3.11367 12.8803 3.37538L10.7632 6.20336L10.6812 5.57448C10.646 5.30106 10.4937 5.05888 10.2632 4.90655C10.0327 4.75421 9.74761 4.71515 9.4859 4.79327L8.10316 5.20341L6.74385 3.62146C6.56417 3.41444 6.30637 3.29335 6.03295 3.29335C5.75953 3.29335 5.49782 3.41444 5.32205 3.62146L3.89243 5.28543L2.05659 5.05498C1.74801 5.01592 1.43943 5.1331 1.23632 5.36746C1.0332 5.60183 0.955079 5.91822 1.0332 6.21898L2.61906 12.2968L1.4199 13.0975C1.14648 13.2772 0.990234 13.5897 1.00195 13.9139C1.01367 14.2381 1.19726 14.535 1.4824 14.6951L5.65797 17.0153L1.27538 21.3979C0.908207 21.7651 0.908207 22.3588 1.27538 22.7221C1.64255 23.0853 2.23627 23.0892 2.59953 22.7221L6.98603 18.3434L9.30622 22.5189C9.46637 22.8041 9.75932 22.9877 10.0874 22.9994C10.4155 23.0111 10.7241 22.8549 10.9038 22.5814L11.7045 21.3823L17.7824 22.9681C18.0831 23.0463 18.4034 22.972 18.6378 22.765C18.8721 22.558 18.9893 22.2533 18.9503 21.9448L18.7393 20.273C18.7276 20.1675 18.7667 20.0659 18.8448 19.9956L20.3799 18.6793C20.5869 18.4996 20.708 18.2418 20.708 17.9684C20.708 17.695 20.5869 17.4333 20.3799 17.2575L18.794 15.8982L19.2042 14.5154C19.2823 14.2498 19.2393 13.9686 19.0909 13.7381C18.9425 13.5077 18.6964 13.3553 18.4229 13.3202L17.798 13.2382L20.626 11.1172C20.8877 10.9219 21.0244 10.6055 20.997 10.2813C20.9697 9.95707 20.7744 9.67193 20.4814 9.52741L19.0714 8.82041C18.9385 8.75401 18.8682 8.59777 18.9112 8.45324L19.794 5.35965C19.8877 5.03154 19.7979 4.68 19.5557 4.43782C19.3135 4.19565 18.962 4.10581 18.6339 4.19955L15.5403 5.09013C15.3958 5.1331 15.2434 5.06279 15.1731 4.92998L14.47 3.5199ZM8.36486 16.9645L13.2631 12.0663C13.6302 11.6992 13.6302 11.1055 13.2631 10.7422C12.8959 10.3789 12.3022 10.375 11.9389 10.7422L7.0368 15.6365L3.7401 13.8045L3.84556 13.7342C4.40022 13.3632 4.65802 12.6835 4.49006 12.039L3.19715 7.08613L4.16195 7.20721C4.47443 7.24627 4.78692 7.12519 4.99003 6.88692L6.03295 5.67213L7.07587 6.88692C7.31804 7.16815 7.70083 7.28143 8.05628 7.17596L8.96249 6.90645L9.19685 8.73448C9.24372 9.11337 9.51715 9.42585 9.88822 9.5235C10.2593 9.62115 10.6499 9.48444 10.8765 9.17977L13.474 5.7151L13.5013 5.76979C13.97 6.71114 15.0442 7.18378 16.0559 6.89473L17.5285 6.47288L17.1066 7.94546C16.8176 8.95712 17.2902 10.0313 18.2316 10.5039L18.2862 10.5313L14.8216 13.1288C14.5169 13.3592 14.3802 13.7499 14.4778 14.117C14.5755 14.4842 14.888 14.7576 15.2669 14.8084L17.0949 15.0428L16.8254 15.949C16.7199 16.3044 16.8332 16.6872 17.1144 16.9294L18.3292 17.9723L17.6222 18.5777C17.0636 19.0543 16.7824 19.7808 16.8762 20.5112L16.9152 20.812L11.9623 19.5152C11.3178 19.3472 10.6382 19.605 10.2671 20.1597L10.1968 20.2651L8.36486 16.9645Z" fill="#0D001D"/>
<path d="M14.47 3.5199C14.3255 3.23085 14.0404 3.03555 13.7162 3.0043C13.392 2.97305 13.0756 3.11367 12.8803 3.37538L10.7632 6.20336L10.6812 5.57448C10.646 5.30106 10.4937 5.05888 10.2632 4.90655C10.0327 4.75421 9.74761 4.71515 9.4859 4.79327L8.10316 5.20341L6.74385 3.62146C6.56417 3.41444 6.30637 3.29335 6.03295 3.29335C5.75953 3.29335 5.49782 3.41444 5.32205 3.62146L3.89243 5.28543L2.05659 5.05498C1.74801 5.01592 1.43943 5.1331 1.23632 5.36746C1.0332 5.60183 0.955079 5.91822 1.0332 6.21898L2.61906 12.2968L1.4199 13.0975C1.14648 13.2772 0.990234 13.5897 1.00195 13.9139C1.01367 14.2381 1.19726 14.535 1.4824 14.6951L5.65797 17.0153L1.27538 21.3979C0.908207 21.7651 0.908207 22.3588 1.27538 22.7221C1.64255 23.0853 2.23627 23.0892 2.59953 22.7221L6.98603 18.3434L9.30622 22.5189C9.46637 22.8041 9.75932 22.9877 10.0874 22.9994C10.4155 23.0111 10.7241 22.8549 10.9038 22.5814L11.7045 21.3823L17.7824 22.9681C18.0831 23.0463 18.4034 22.972 18.6378 22.765C18.8721 22.558 18.9893 22.2533 18.9503 21.9448L18.7393 20.273C18.7276 20.1675 18.7667 20.0659 18.8448 19.9956L20.3799 18.6793C20.5869 18.4996 20.708 18.2418 20.708 17.9684C20.708 17.695 20.5869 17.4333 20.3799 17.2575L18.794 15.8982L19.2042 14.5154C19.2823 14.2498 19.2393 13.9686 19.0909 13.7381C18.9425 13.5077 18.6964 13.3553 18.4229 13.3202L17.798 13.2382L20.626 11.1172C20.8877 10.9219 21.0244 10.6055 20.997 10.2813C20.9697 9.95707 20.7744 9.67193 20.4814 9.52741L19.0714 8.82041C18.9385 8.75401 18.8682 8.59777 18.9112 8.45324L19.794 5.35965C19.8877 5.03154 19.7979 4.68 19.5557 4.43782C19.3135 4.19565 18.962 4.10581 18.6339 4.19955L15.5403 5.09013C15.3958 5.1331 15.2434 5.06279 15.1731 4.92998L14.47 3.5199ZM8.36486 16.9645L13.2631 12.0663C13.6302 11.6992 13.6302 11.1055 13.2631 10.7422C12.8959 10.3789 12.3022 10.375 11.9389 10.7422L7.0368 15.6365L3.7401 13.8045L3.84556 13.7342C4.40022 13.3632 4.65802 12.6835 4.49006 12.039L3.19715 7.08613L4.16195 7.20721C4.47443 7.24627 4.78692 7.12519 4.99003 6.88692L6.03295 5.67213L7.07587 6.88692C7.31804 7.16815 7.70083 7.28143 8.05628 7.17596L8.96249 6.90645L9.19685 8.73448C9.24372 9.11337 9.51715 9.42585 9.88822 9.5235C10.2593 9.62115 10.6499 9.48444 10.8765 9.17977L13.474 5.7151L13.5013 5.76979C13.97 6.71114 15.0442 7.18378 16.0559 6.89473L17.5285 6.47288L17.1066 7.94546C16.8176 8.95712 17.2902 10.0313 18.2316 10.5039L18.2862 10.5313L14.8216 13.1288C14.5169 13.3592 14.3802 13.7499 14.4778 14.117C14.5755 14.4842 14.888 14.7576 15.2669 14.8084L17.0949 15.0428L16.8254 15.949C16.7199 16.3044 16.8332 16.6872 17.1144 16.9294L18.3292 17.9723L17.6222 18.5777C17.0636 19.0543 16.7824 19.7808 16.8762 20.5112L16.9152 20.812L11.9623 19.5152C11.3178 19.3472 10.6382 19.605 10.2671 20.1597L10.1968 20.2651L8.36486 16.9645Z" fill="url(#paint0_radial_3_15)"/>
<path d="M14.47 3.5199C14.3255 3.23085 14.0404 3.03555 13.7162 3.0043C13.392 2.97305 13.0756 3.11367 12.8803 3.37538L10.7632 6.20336L10.6812 5.57448C10.646 5.30106 10.4937 5.05888 10.2632 4.90655C10.0327 4.75421 9.74761 4.71515 9.4859 4.79327L8.10316 5.20341L6.74385 3.62146C6.56417 3.41444 6.30637 3.29335 6.03295 3.29335C5.75953 3.29335 5.49782 3.41444 5.32205 3.62146L3.89243 5.28543L2.05659 5.05498C1.74801 5.01592 1.43943 5.1331 1.23632 5.36746C1.0332 5.60183 0.955079 5.91822 1.0332 6.21898L2.61906 12.2968L1.4199 13.0975C1.14648 13.2772 0.990234 13.5897 1.00195 13.9139C1.01367 14.2381 1.19726 14.535 1.4824 14.6951L5.65797 17.0153L1.27538 21.3979C0.908207 21.7651 0.908207 22.3588 1.27538 22.7221C1.64255 23.0853 2.23627 23.0892 2.59953 22.7221L6.98603 18.3434L9.30622 22.5189C9.46637 22.8041 9.75932 22.9877 10.0874 22.9994C10.4155 23.0111 10.7241 22.8549 10.9038 22.5814L11.7045 21.3823L17.7824 22.9681C18.0831 23.0463 18.4034 22.972 18.6378 22.765C18.8721 22.558 18.9893 22.2533 18.9503 21.9448L18.7393 20.273C18.7276 20.1675 18.7667 20.0659 18.8448 19.9956L20.3799 18.6793C20.5869 18.4996 20.708 18.2418 20.708 17.9684C20.708 17.695 20.5869 17.4333 20.3799 17.2575L18.794 15.8982L19.2042 14.5154C19.2823 14.2498 19.2393 13.9686 19.0909 13.7381C18.9425 13.5077 18.6964 13.3553 18.4229 13.3202L17.798 13.2382L20.626 11.1172C20.8877 10.9219 21.0244 10.6055 20.997 10.2813C20.9697 9.95707 20.7744 9.67193 20.4814 9.52741L19.0714 8.82041C18.9385 8.75401 18.8682 8.59777 18.9112 8.45324L19.794 5.35965C19.8877 5.03154 19.7979 4.68 19.5557 4.43782C19.3135 4.19565 18.962 4.10581 18.6339 4.19955L15.5403 5.09013C15.3958 5.1331 15.2434 5.06279 15.1731 4.92998L14.47 3.5199ZM8.36486 16.9645L13.2631 12.0663C13.6302 11.6992 13.6302 11.1055 13.2631 10.7422C12.8959 10.3789 12.3022 10.375 11.9389 10.7422L7.0368 15.6365L3.7401 13.8045L3.84556 13.7342C4.40022 13.3632 4.65802 12.6835 4.49006 12.039L3.19715 7.08613L4.16195 7.20721C4.47443 7.24627 4.78692 7.12519 4.99003 6.88692L6.03295 5.67213L7.07587 6.88692C7.31804 7.16815 7.70083 7.28143 8.05628 7.17596L8.96249 6.90645L9.19685 8.73448C9.24372 9.11337 9.51715 9.42585 9.88822 9.5235C10.2593 9.62115 10.6499 9.48444 10.8765 9.17977L13.474 5.7151L13.5013 5.76979C13.97 6.71114 15.0442 7.18378 16.0559 6.89473L17.5285 6.47288L17.1066 7.94546C16.8176 8.95712 17.2902 10.0313 18.2316 10.5039L18.2862 10.5313L14.8216 13.1288C14.5169 13.3592 14.3802 13.7499 14.4778 14.117C14.5755 14.4842 14.888 14.7576 15.2669 14.8084L17.0949 15.0428L16.8254 15.949C16.7199 16.3044 16.8332 16.6872 17.1144 16.9294L18.3292 17.9723L17.6222 18.5777C17.0636 19.0543 16.7824 19.7808 16.8762 20.5112L16.9152 20.812L11.9623 19.5152C11.3178 19.3472 10.6382 19.605 10.2671 20.1597L10.1968 20.2651L8.36486 16.9645Z" fill="url(#paint1_radial_3_15)"/>
<path d="M13.0806 3.52489L10.9633 6.35317L10.5948 6.84541L10.5153 6.23568L10.4333 5.60681C10.4075 5.40638 10.2959 5.22784 10.1253 5.11509C9.95805 5.0045 9.7498 4.97539 9.55741 5.03282L8.17425 5.44308L8.01905 5.48911L7.91354 5.36633L6.55505 3.78531M13.0806 3.52489L9.5242 22.3965M13.0806 3.52489C13.2239 3.33289 13.4554 3.23031 13.6922 3.25314C13.9312 3.27617 14.1405 3.42007 14.2463 3.63144L13.0806 3.52489ZM6.55505 3.78531C6.55493 3.78518 6.55517 3.78544 6.55505 3.78531ZM6.55505 3.78531C6.42138 3.63152 6.2315 3.54334 6.03295 3.54334C5.83264 3.54334 5.64071 3.63239 5.51262 3.78325L5.51168 3.78437L4.08206 5.44834L3.99454 5.55021L3.86129 5.53348L2.02545 5.30302C1.79914 5.27437 1.5732 5.36046 1.42524 5.53118C1.27448 5.70513 1.21836 5.93721 1.27514 6.156M1.27514 6.156C1.27515 6.15604 1.27513 6.15596 1.27514 6.156ZM1.27514 6.156L2.86096 12.2337L2.90589 12.4059L2.75789 12.5047L1.55873 13.3054L1.5572 13.3065C1.35874 13.4369 1.24314 13.6657 1.25179 13.9049C1.26029 14.1401 1.39399 14.3585 1.60438 14.4769M1.60438 14.4769C1.60453 14.477 1.60423 14.4769 1.60438 14.4769ZM1.60438 14.4769L5.7794 16.7968L6.06908 16.9578L5.83474 17.1921L1.45215 21.5747C1.18209 21.8447 1.18346 22.2794 1.45121 22.5443C1.72271 22.8129 2.15809 22.8128 2.42181 22.5462L2.42291 22.5451L6.80941 18.1664L7.04374 17.9325L7.20456 18.2219L9.5242 22.3965M9.5242 22.3965C9.52428 22.3967 9.52412 22.3964 9.5242 22.3965ZM8.0548 16.921L8.18809 16.7878L13.0863 11.8896C13.3563 11.6195 13.355 11.1848 13.0872 10.9199C12.8157 10.6513 12.3803 10.6515 12.1166 10.918L12.1155 10.9191L7.21344 15.8134L7.08009 15.9465L6.91537 15.855L3.61866 14.0231L3.26031 13.8239L3.60142 13.5965L3.70655 13.5264C4.17275 13.2145 4.38927 12.6436 4.24814 12.102L2.95526 7.14926L2.86203 6.79209L3.22829 6.83806L4.19296 6.95913M8.0548 16.921L17.347 8.01413M8.0548 16.921L8.14628 17.0859L9.97821 20.3865L10.1773 20.7451L10.4048 20.4038L10.4749 20.2987M8.0548 16.921L10.4749 20.2987M4.19296 6.95913C4.193 6.95914 4.19292 6.95912 4.19296 6.95913ZM4.19296 6.95913C4.42228 6.98775 4.65154 6.89862 4.79978 6.72472L5.84326 5.50928L6.03295 5.28833L6.22263 5.50928L7.26531 6.72378M7.26531 6.72378C7.26539 6.72387 7.26523 6.72368 7.26531 6.72378ZM7.26531 6.72378C7.4436 6.9306 7.72464 7.01357 7.98514 6.93629M7.98514 6.93629C7.98515 6.93629 7.98513 6.9363 7.98514 6.93629ZM7.98514 6.93629L8.89122 6.66681L9.17307 6.58299L9.21046 6.87465L9.44482 8.70268L9.44496 8.70378C9.47923 8.98078 9.67923 9.20998 9.95185 9.28172C10.2249 9.35358 10.5106 9.25277 10.6758 9.03058L13.274 5.56513L13.5166 5.24141L13.6976 5.60329L13.7249 5.65797C14.1398 6.49129 15.0911 6.91036 15.9872 6.65434L17.4596 6.23253L17.8929 6.1084L17.7688 6.54171L17.347 8.01413M17.347 8.01413C17.0912 8.90991 17.5095 9.86166 18.3437 10.2805M17.347 8.01413L18.3437 10.2805M10.4749 20.2987C10.7868 19.8328 11.3577 19.6161 11.899 19.757M10.4749 20.2987L11.899 19.757M11.899 19.757L16.8519 21.0538L17.2109 21.1479L17.1631 20.7798L17.1241 20.479M11.899 19.757L17.1241 20.479M18.3437 10.2805L18.398 10.3077L18.7599 10.4886L18.4362 10.7313L14.9724 13.3282M18.3437 10.2805L17.065 16.0201M14.9724 13.3282C14.9723 13.3282 14.9725 13.3281 14.9724 13.3282ZM14.9724 13.3282C14.7478 13.4983 14.6483 13.7853 14.7194 14.0528C14.7908 14.321 15.0199 14.5228 15.2994 14.5605M15.2994 14.5605C15.2996 14.5605 15.2991 14.5605 15.2994 14.5605ZM15.2994 14.5605L17.1267 14.7948L17.4183 14.8322L17.3345 15.114L17.065 16.0201M17.065 16.0201C16.9878 16.2806 17.0708 16.5616 17.2776 16.7399M17.065 16.0201L17.2776 16.7399M18.7133 17.9725L18.4918 18.1622L17.7848 18.7676C17.2905 19.1893 17.0412 19.8325 17.1241 20.479M18.7133 17.9725L17.1241 20.479M18.7133 17.9725L18.4921 17.7826L17.2776 16.7399M17.2776 16.7399C17.2775 16.7399 17.2777 16.74 17.2776 16.7399Z" stroke="url(#paint2_linear_3_15)" stroke-opacity="0.05" stroke-width="0.5"/>
<path d="M36.336 19.32C35.9307 19.32 35.5467 19.272 35.184 19.176C34.832 19.08 34.5067 18.952 34.208 18.792C33.92 18.6213 33.664 18.4347 33.44 18.232C33.216 18.0293 33.04 17.8267 32.912 17.624C32.7947 17.4533 32.72 17.3147 32.688 17.208C32.656 17.0907 32.6613 16.9787 32.704 16.872C32.7573 16.7653 32.8587 16.648 33.008 16.52C33.1787 16.392 33.328 16.3333 33.456 16.344C33.584 16.344 33.7013 16.392 33.808 16.488C33.9253 16.584 34.0427 16.712 34.16 16.872C34.4267 17.2347 34.752 17.5013 35.136 17.672C35.52 17.832 35.8987 17.912 36.272 17.912C36.752 17.912 37.1787 17.848 37.552 17.72C37.9253 17.592 38.2187 17.4 38.432 17.144C38.656 16.8773 38.768 16.536 38.768 16.12C38.768 15.7787 38.6827 15.4907 38.512 15.256C38.3413 15.0213 38.112 14.824 37.824 14.664C37.536 14.4933 37.216 14.3493 36.864 14.232C36.512 14.104 36.1547 13.9813 35.792 13.864C35.504 13.768 35.2213 13.6613 34.944 13.544C34.6667 13.416 34.4053 13.2773 34.16 13.128C33.9147 12.968 33.696 12.7813 33.504 12.568C33.3227 12.3547 33.1787 12.104 33.072 11.816C32.976 11.528 32.928 11.192 32.928 10.808C32.928 10.2213 33.0667 9.704 33.344 9.256C33.632 8.808 34.032 8.46133 34.544 8.216C35.056 7.96 35.648 7.832 36.32 7.832C36.7147 7.832 37.0773 7.86933 37.408 7.944C37.7387 8.01867 38.032 8.12 38.288 8.248C38.544 8.36533 38.7627 8.49333 38.944 8.632C39.1253 8.76 39.264 8.88267 39.36 9C39.552 9.20267 39.6587 9.37333 39.68 9.512C39.7013 9.65067 39.6213 9.82133 39.44 10.024C39.2693 10.216 39.104 10.3173 38.944 10.328C38.784 10.3387 38.608 10.264 38.416 10.104C38.2133 9.86933 38 9.688 37.776 9.56C37.5627 9.432 37.3333 9.34667 37.088 9.304C36.8533 9.25067 36.592 9.224 36.304 9.224C36.0267 9.224 35.7653 9.26133 35.52 9.336C35.2853 9.4 35.0773 9.50133 34.896 9.64C34.7253 9.77867 34.592 9.94933 34.496 10.152C34.4 10.344 34.352 10.568 34.352 10.824C34.352 11.112 34.4267 11.3573 34.576 11.56C34.736 11.7627 34.944 11.9387 35.2 12.088C35.456 12.2267 35.744 12.3547 36.064 12.472C36.384 12.5787 36.72 12.6853 37.072 12.792C37.456 12.9093 37.8347 13.0533 38.208 13.224C38.5813 13.384 38.9173 13.5867 39.216 13.832C39.5147 14.0667 39.7547 14.3653 39.936 14.728C40.1173 15.0907 40.208 15.5387 40.208 16.072C40.208 16.6053 40.1013 17.0747 39.888 17.48C39.6853 17.8853 39.4027 18.2267 39.04 18.504C38.6773 18.7707 38.2613 18.9733 37.792 19.112C37.3333 19.2507 36.848 19.32 36.336 19.32ZM42.4594 19.16C42.2567 19.16 42.102 19.128 41.9954 19.064C41.8887 19.0107 41.8194 18.9307 41.7874 18.824C41.766 18.7067 41.7554 18.5733 41.7554 18.424V8.568C41.7554 8.41867 41.7714 8.29067 41.8034 8.184C41.8354 8.07733 41.9047 7.99733 42.0114 7.944C42.118 7.88 42.2727 7.848 42.4754 7.848C42.6887 7.848 42.8434 7.88 42.9394 7.944C43.046 7.99733 43.11 8.07733 43.1314 8.184C43.1634 8.29067 43.1794 8.424 43.1794 8.584V12.536C43.4354 12.2373 43.7447 11.9707 44.1074 11.736C44.4807 11.5013 44.934 11.384 45.4674 11.384C46.0967 11.384 46.6567 11.5333 47.1474 11.832C47.6487 12.12 48.0434 12.5307 48.3314 13.064C48.63 13.5973 48.7794 14.232 48.7794 14.968V18.44C48.7794 18.5893 48.7634 18.7173 48.7314 18.824C48.6994 18.9307 48.6354 19.0107 48.5394 19.064C48.4434 19.128 48.2887 19.16 48.0754 19.16C47.8727 19.16 47.718 19.128 47.6114 19.064C47.5047 19.0107 47.4354 18.9307 47.4034 18.824C47.3714 18.7067 47.3554 18.5733 47.3554 18.424V14.952C47.3554 14.504 47.2807 14.1147 47.1314 13.784C46.982 13.4533 46.758 13.1973 46.4594 13.016C46.1714 12.8347 45.8034 12.744 45.3554 12.744C44.7474 12.744 44.246 12.92 43.8514 13.272C43.4674 13.6133 43.2434 14.072 43.1794 14.648V18.44C43.1794 18.5893 43.1634 18.7173 43.1314 18.824C43.0994 18.9307 43.03 19.0107 42.9234 19.064C42.8274 19.128 42.6727 19.16 42.4594 19.16ZM51.2139 19.16C51.0112 19.16 50.8565 19.128 50.7499 19.064C50.6539 19.0107 50.5899 18.9307 50.5579 18.824C50.5259 18.7173 50.5099 18.5893 50.5099 18.44V12.12C50.5099 11.9707 50.5259 11.8427 50.5579 11.736C50.5899 11.6293 50.6539 11.5493 50.7499 11.496C50.8565 11.4427 51.0165 11.416 51.2299 11.416C51.4325 11.416 51.5819 11.448 51.6779 11.512C51.7739 11.5653 51.8379 11.6453 51.8699 11.752C51.9019 11.8587 51.9179 11.992 51.9179 12.152V18.456C51.9179 18.6053 51.9019 18.7333 51.8699 18.84C51.8379 18.9467 51.7685 19.0267 51.6619 19.08C51.5659 19.1333 51.4165 19.16 51.2139 19.16ZM51.2139 9.496C50.9792 9.496 50.8032 9.464 50.6859 9.4C50.5685 9.32533 50.4885 9.224 50.4459 9.096C50.4139 8.968 50.3979 8.81867 50.3979 8.648C50.3979 8.47733 50.4192 8.33333 50.4619 8.216C50.5045 8.088 50.5845 7.99733 50.7019 7.944C50.8192 7.88 50.9952 7.848 51.2299 7.848C51.4539 7.848 51.6245 7.88 51.7419 7.944C51.8592 8.008 51.9339 8.104 51.9659 8.232C52.0085 8.36 52.0299 8.50933 52.0299 8.68C52.0299 8.85067 52.0085 9 51.9659 9.128C51.9339 9.24533 51.8592 9.336 51.7419 9.4C51.6245 9.464 51.4485 9.496 51.2139 9.496ZM57.928 19.096C57.4053 19.096 56.9307 19 56.504 18.808C56.0773 18.616 55.7147 18.3493 55.416 18.008C55.1173 17.656 54.8827 17.2453 54.712 16.776C54.552 16.3067 54.4773 15.7893 54.488 15.224C54.488 14.6693 54.568 14.1573 54.728 13.688C54.888 13.2187 55.1173 12.8133 55.416 12.472C55.7253 12.12 56.088 11.8533 56.504 11.672C56.9307 11.48 57.4053 11.384 57.928 11.384C58.4187 11.384 58.8773 11.48 59.304 11.672C59.7413 11.864 60.12 12.136 60.44 12.488C60.7707 12.8293 61.0267 13.24 61.208 13.72C61.4 14.2 61.496 14.7173 61.496 15.272C61.496 15.8267 61.4 16.3387 61.208 16.808C61.0267 17.2773 60.7707 17.6827 60.44 18.024C60.12 18.3653 59.7413 18.632 59.304 18.824C58.8773 19.0053 58.4187 19.096 57.928 19.096ZM54.6 22.312C54.3973 22.312 54.2427 22.28 54.136 22.216C54.04 22.1627 53.9707 22.0827 53.928 21.976C53.896 21.8693 53.88 21.7413 53.88 21.592V12.136C53.88 11.9867 53.896 11.8587 53.928 11.752C53.96 11.6453 54.024 11.5653 54.12 11.512C54.2267 11.448 54.3813 11.416 54.584 11.416C54.8187 11.416 54.9893 11.4533 55.096 11.528C55.2133 11.6027 55.2827 11.736 55.304 11.928V21.576C55.3147 21.7253 55.304 21.8533 55.272 21.96C55.24 22.0773 55.1707 22.1627 55.064 22.216C54.968 22.28 54.8133 22.312 54.6 22.312ZM57.72 17.784C58.168 17.784 58.5733 17.6773 58.936 17.464C59.2987 17.24 59.5813 16.936 59.784 16.552C59.9973 16.168 60.104 15.7307 60.104 15.24C60.104 14.7387 59.9973 14.3013 59.784 13.928C59.5813 13.5547 59.2987 13.2667 58.936 13.064C58.584 12.8507 58.1787 12.744 57.72 12.744C57.272 12.744 56.8667 12.8507 56.504 13.064C56.152 13.2773 55.8693 13.5707 55.656 13.944C55.4533 14.3173 55.352 14.7493 55.352 15.24C55.352 15.7307 55.4533 16.168 55.656 16.552C55.8693 16.936 56.152 17.24 56.504 17.464C56.8667 17.6773 57.272 17.784 57.72 17.784ZM64.1075 19.16C63.9048 19.16 63.7502 19.128 63.6435 19.064C63.5368 19.0107 63.4675 18.9307 63.4355 18.824C63.4142 18.7067 63.4035 18.5733 63.4035 18.424V8.696C63.4035 8.55733 63.4195 8.44 63.4515 8.344C63.4942 8.23733 63.5635 8.152 63.6595 8.088C63.7662 8.024 63.9208 7.992 64.1235 7.992H67.6595C68.1822 7.992 68.6568 8.072 69.0835 8.232C69.5208 8.38133 69.8995 8.60533 70.2195 8.904C70.5395 9.20267 70.7848 9.58133 70.9555 10.04C71.1368 10.488 71.2275 11.0107 71.2275 11.608C71.2275 11.9813 71.1688 12.3707 71.0515 12.776C70.9342 13.1707 70.7528 13.544 70.5075 13.896C70.2728 14.248 69.9688 14.5413 69.5955 14.776C69.2222 15.0107 68.7688 15.144 68.2355 15.176H64.8435V18.44C64.8435 18.5893 64.8222 18.7173 64.7795 18.824C64.7475 18.9307 64.6782 19.0107 64.5715 19.064C64.4755 19.128 64.3208 19.16 64.1075 19.16ZM70.9715 18.984C70.7475 19.1333 70.5555 19.1813 70.3955 19.128C70.2462 19.0747 70.1022 18.9467 69.9635 18.744L67.4035 14.648L68.9875 14.408L71.1955 17.928C71.3022 18.0987 71.3662 18.2427 71.3875 18.36C71.4195 18.4773 71.3982 18.584 71.3235 18.68C71.2595 18.776 71.1422 18.8773 70.9715 18.984ZM64.8435 13.768H68.0115C68.2568 13.768 68.4862 13.7253 68.6995 13.64C68.9128 13.544 69.0995 13.4053 69.2595 13.224C69.4195 13.0427 69.5475 12.8187 69.6435 12.552C69.7395 12.2853 69.7875 11.9653 69.7875 11.592C69.7875 11.1333 69.7022 10.744 69.5315 10.424C69.3715 10.104 69.1315 9.864 68.8115 9.704C68.4915 9.53333 68.0968 9.448 67.6275 9.448H64.8435V13.768ZM76.5154 19.24C75.8754 19.24 75.3047 19.1333 74.8034 18.92C74.302 18.7067 73.8754 18.4187 73.5234 18.056C73.182 17.6827 72.9207 17.256 72.7394 16.776C72.558 16.296 72.4674 15.7787 72.4674 15.224C72.4674 14.488 72.638 13.832 72.9794 13.256C73.3207 12.68 73.79 12.2267 74.3874 11.896C74.9954 11.5547 75.6887 11.384 76.4674 11.384C77.0007 11.384 77.4754 11.4693 77.8914 11.64C78.318 11.8 78.6807 12.0187 78.9794 12.296C79.278 12.5733 79.5074 12.8827 79.6674 13.224C79.8274 13.5653 79.9074 13.9067 79.9074 14.248C79.9074 14.792 79.7794 15.176 79.5234 15.4C79.2674 15.6133 78.9527 15.72 78.5794 15.72H73.9554C73.9447 16.1893 74.0674 16.5947 74.3234 16.936C74.59 17.2667 74.9207 17.5227 75.3154 17.704C75.7207 17.8853 76.126 17.976 76.5314 17.976C76.83 17.976 77.086 17.96 77.2994 17.928C77.5127 17.896 77.6994 17.8533 77.8594 17.8C78.0194 17.7467 78.158 17.6933 78.2754 17.64C78.3927 17.5867 78.494 17.5333 78.5794 17.48C78.6754 17.4267 78.766 17.3893 78.8514 17.368C78.9474 17.3467 79.038 17.3573 79.1234 17.4C79.2194 17.432 79.294 17.5013 79.3474 17.608C79.4114 17.6933 79.454 17.7733 79.4754 17.848C79.4967 17.9227 79.5074 18.0027 79.5074 18.088C79.5074 18.2373 79.3794 18.4027 79.1234 18.584C78.8674 18.7653 78.51 18.92 78.0514 19.048C77.6034 19.176 77.0914 19.24 76.5154 19.24ZM73.9554 14.776H77.9714C78.174 14.776 78.3234 14.7493 78.4194 14.696C78.526 14.6427 78.5794 14.4987 78.5794 14.264C78.5794 13.9653 78.4887 13.6987 78.3074 13.464C78.126 13.2187 77.8754 13.0213 77.5554 12.872C77.246 12.7227 76.8887 12.648 76.4834 12.648C76.014 12.648 75.582 12.744 75.1874 12.936C74.8034 13.1173 74.4994 13.368 74.2754 13.688C74.0514 14.008 73.9447 14.3707 73.9554 14.776ZM88.1 19.144C87.8653 19.144 87.6947 19.096 87.588 19C87.492 18.904 87.4333 18.7547 87.412 18.552L87.476 17.752C87.3693 17.9227 87.204 18.12 86.98 18.344C86.756 18.5573 86.4627 18.7493 86.1 18.92C85.7373 19.08 85.2947 19.16 84.772 19.16C84.26 19.16 83.78 19.0587 83.332 18.856C82.8947 18.6533 82.5053 18.3707 82.164 18.008C81.8333 17.6453 81.572 17.2293 81.38 16.76C81.1987 16.2907 81.108 15.7893 81.108 15.256C81.108 14.7333 81.1987 14.2427 81.38 13.784C81.572 13.3147 81.8387 12.904 82.18 12.552C82.5213 12.2 82.9107 11.9227 83.348 11.72C83.796 11.5173 84.2707 11.416 84.772 11.416C85.2413 11.416 85.6413 11.48 85.972 11.608C86.3027 11.7253 86.5853 11.8853 86.82 12.088C87.0653 12.28 87.2787 12.4987 87.46 12.744L87.428 12.072C87.4173 11.8373 87.4653 11.672 87.572 11.576C87.6893 11.4693 87.8707 11.416 88.116 11.416C88.3187 11.416 88.4627 11.448 88.548 11.512C88.644 11.576 88.708 11.6667 88.74 11.784C88.772 11.9013 88.788 12.0453 88.788 12.216V18.392C88.788 18.5413 88.772 18.6747 88.74 18.792C88.708 18.9093 88.644 18.9947 88.548 19.048C88.452 19.112 88.3027 19.144 88.1 19.144ZM85.012 17.816C85.4387 17.816 85.828 17.704 86.18 17.48C86.5427 17.256 86.8253 16.9573 87.028 16.584C87.2413 16.2 87.348 15.7627 87.348 15.272C87.348 14.7707 87.236 14.3333 87.012 13.96C86.7987 13.576 86.5107 13.2773 86.148 13.064C85.796 12.84 85.4067 12.728 84.98 12.728C84.4787 12.728 84.0413 12.8453 83.668 13.08C83.3053 13.304 83.0173 13.608 82.804 13.992C82.5907 14.376 82.484 14.8133 82.484 15.304C82.484 15.784 82.5907 16.216 82.804 16.6C83.0173 16.9733 83.3107 17.272 83.684 17.496C84.068 17.7093 84.5107 17.816 85.012 17.816ZM94.3435 19.192C93.7888 19.192 93.2662 19.1013 92.7755 18.92C92.2955 18.7387 91.8688 18.4773 91.4955 18.136C91.1328 17.7947 90.8448 17.3893 90.6315 16.92C90.4288 16.44 90.3275 15.896 90.3275 15.288C90.3275 14.68 90.4288 14.1413 90.6315 13.672C90.8448 13.192 91.1328 12.7813 91.4955 12.44C91.8582 12.0987 92.2795 11.8373 92.7595 11.656C93.2502 11.4747 93.7675 11.384 94.3115 11.384C94.6742 11.384 95.0315 11.4427 95.3835 11.56C95.7355 11.6667 96.0448 11.8107 96.3115 11.992C96.5888 12.1627 96.7862 12.344 96.9035 12.536C97.0102 12.6747 97.0848 12.792 97.1275 12.888C97.1808 12.9733 97.1862 13.0747 97.1435 13.192C97.1008 13.2773 97.0422 13.3573 96.9675 13.432C96.8928 13.496 96.8182 13.5493 96.7435 13.592C96.5515 13.7413 96.3595 13.7627 96.1675 13.656C96.0502 13.5387 95.9168 13.432 95.7675 13.336C95.6288 13.2293 95.4795 13.1333 95.3195 13.048C95.1595 12.9627 94.9942 12.8987 94.8235 12.856C94.6635 12.8027 94.4928 12.776 94.3115 12.776C93.8102 12.776 93.3675 12.8827 92.9835 13.096C92.5995 13.2987 92.3008 13.592 92.0875 13.976C91.8848 14.3493 91.7835 14.7867 91.7835 15.288C91.7835 15.7893 91.8848 16.2267 92.0875 16.6C92.3008 16.9733 92.5942 17.2667 92.9675 17.48C93.3515 17.6933 93.7888 17.8 94.2795 17.8C94.5035 17.8 94.7168 17.7733 94.9195 17.72C95.1328 17.656 95.3302 17.576 95.5115 17.48C95.6928 17.3733 95.8422 17.2613 95.9595 17.144C96.0662 17.0693 96.1568 17.0053 96.2315 16.952C96.3062 16.8987 96.3968 16.872 96.5035 16.872C96.5888 16.872 96.6795 16.9093 96.7755 16.984C96.8715 17.048 96.9728 17.1493 97.0795 17.288C97.1648 17.384 97.2128 17.4853 97.2235 17.592C97.2448 17.6987 97.2288 17.8 97.1755 17.896C97.1222 17.992 97.0368 18.088 96.9195 18.184C96.7488 18.3547 96.5195 18.52 96.2315 18.68C95.9542 18.8293 95.6502 18.952 95.3195 19.048C94.9888 19.144 94.6635 19.192 94.3435 19.192ZM102.312 19.16C101.811 19.16 101.384 19.112 101.032 19.016C100.691 18.92 100.408 18.7707 100.184 18.568C99.9603 18.3653 99.8003 18.104 99.7043 17.784C99.6083 17.4533 99.5603 17.048 99.5603 16.568V9.496C99.5603 9.34667 99.5763 9.21867 99.6083 9.112C99.6403 9.00533 99.7043 8.92533 99.8003 8.872C99.8963 8.808 100.046 8.776 100.248 8.776C100.451 8.776 100.606 8.808 100.712 8.872C100.819 8.92533 100.888 9.00533 100.92 9.112C100.952 9.208 100.968 9.33067 100.968 9.48V16.568C100.968 16.8453 100.99 17.0693 101.032 17.24C101.086 17.4 101.16 17.5227 101.256 17.608C101.363 17.6933 101.502 17.7467 101.672 17.768C101.843 17.7893 102.051 17.8 102.296 17.8C102.467 17.8 102.606 17.816 102.712 17.848C102.819 17.88 102.899 17.944 102.952 18.04C103.006 18.136 103.032 18.28 103.032 18.472C103.032 18.6747 103 18.8293 102.936 18.936C102.883 19.032 102.798 19.0907 102.68 19.112C102.574 19.144 102.451 19.16 102.312 19.16ZM98.7283 11.592L100.264 11.608L102.488 11.576C102.638 11.576 102.766 11.592 102.872 11.624C102.979 11.6453 103.059 11.7093 103.112 11.816C103.176 11.912 103.208 12.0613 103.208 12.264C103.208 12.4667 103.182 12.6213 103.128 12.728C103.075 12.824 102.995 12.888 102.888 12.92C102.782 12.952 102.654 12.968 102.504 12.968L100.312 12.936L98.6963 12.952C98.4723 12.952 98.3176 12.8987 98.2323 12.792C98.1576 12.6853 98.1203 12.5093 98.1203 12.264C98.1203 12.0293 98.1683 11.8587 98.2643 11.752C98.3603 11.6453 98.5149 11.592 98.7283 11.592Z" fill="url(#paint3_linear_3_15)"/>
<defs>
<radialGradient id="paint0_radial_3_15" cx="0" cy="0" r="1" gradientUnits="userSpaceOnUse" gradientTransform="translate(0.999998 23) rotate(-47.3271) scale(79.1336 79.1337)">
<stop stop-color="#9563FF"/>
<stop offset="1" stop-color="#9563FF" stop-opacity="0"/>
</radialGradient>
<radialGradient id="paint1_radial_3_15" cx="0" cy="0" r="1" gradientUnits="userSpaceOnUse" gradientTransform="translate(1.90911 21.6364) rotate(-41.7101) scale(28.0094 28.0093)">
<stop stop-color="#FF7F57"/>
<stop offset="1" stop-color="#9563FF" stop-opacity="0"/>
</radialGradient>
<linearGradient id="paint2_linear_3_15" x1="11.0002" y1="2.99999" x2="11.0002" y2="23" gradientUnits="userSpaceOnUse">
<stop/>
<stop offset="1" stop-opacity="0"/>
</linearGradient>
<linearGradient id="paint3_linear_3_15" x1="68" y1="4" x2="68" y2="23" gradientUnits="userSpaceOnUse">
<stop stop-color="#9563FF"/>
<stop offset="1" stop-color="#FF7F57"/>
</linearGradient>
</defs>
</svg>
